# xmcd
#
# Track frame offsets:
# 150
# 17842
# 31936
# 45287
# 60226
# 77921
# 93291
# 107470
# 131387
# 146834
# 164839
# 183059
# 198888
# 213066
#
# Disc length: 2953 seconds
#
# Revision: 0
# Processed by: cddbd v1.4PL0 Copyright (c) Steve Scherf et al.
# Submitted via: Axialis_AX_CDPlayer 2.6
#
DISCID=aa0b870e
DTITLE=Durwood Douche - Big Banned and Blue
DYEAR=1900
DGENRE=
TTITLE0=Why Me God
TTITLE1=My most Favorite Things
TTITLE2=Air For A Dinosaur
TTITLE3=Mister Bumpy
TTITLE4=These Remind Me Of You
TTITLE5=Merrilou
TTITLE6=Duet In Blue And Brown
TTITLE7=The Limerick Blues
TTITLE8=Here You Are
TTITLE9=I'm In A Pickle
TTITLE10="Front Naughty" Nocturne
TTITLE11=Crazy To Be Crazy Over You
TTITLE12=Without You
TTITLE13=The Christmas Gift
EXTD=
EXTT0=aka: Everybody's Fucking But Me
EXTT1=
EXTT2=
EXTT3=
EXTT4=
EXTT5=
EXTT6=
EXTT7=
EXTT8=
EXTT9=
EXTT10=
EXTT11=
EXTT12=
EXTT13=
PLAYORDER=
